# AST/ASF file generated using VICON BodyLanguage
# -----------------------------------------------
:version 1.10
:name VICON
:units
  mass 1.0
  length 0.45
  angle deg
:documentation
   .ast/.asf automatically generated from VICON data using
   VICON BodyBuilder and BodyLanguage model FoxedUp or BRILLIANT.MOD
:root
   order TX TY TZ RX RY RZ
   axis XYZ
   position 0 0 0  
   orientation 0 0 0 
:bonedata
  begin
     id 1 
     name lhipjoint
     direction 0.661853 -0.702389 0.261917 
     length 2.64193 
     axis 0 0 0  XYZ
  end
  begin
     id 2 
     name lfemur
     direction 0.34202 -0.939693 0  
     length 7.01722  
     axis 0 0 20  XYZ
    dof rx ry rz
    limits (-160.0 20.0)
           (-70.0 70.0)
           (-60.0 70.0)
  end
  begin
     id 3 
     name ltibia
     direction 0.34202 -0.939693 0   
     length 8.25008   
     axis 0 0 20   XYZ
    dof rx
    limits (-10.0 170.0)
  end
  begin
     id 4 
     name lfoot
     direction 0.0709916 -0.195048 0.978221   
     length 2.31941   
     axis -90 7.62852e-016 20   XYZ
    dof rx rz
    limits (-45.0 90.0)
           (-70.0 20.0)
  end
  begin
     id 5 
     name ltoes
     direction 1.53586e-011 -4.22017e-011 1   
     length 1.16486   
     axis -90 7.62852e-016 20   XYZ
    dof rx
    limits (-90.0 20.0)
  end
  begin
     id 6 
     name rhipjoint
     direction -0.638185 -0.721362 0.268992   
     length 2.57244  
     axis 0 0 0  XYZ 
  end
  begin
     id 7 
     name rfemur
     direction -0.34202 -0.939693 0   
     length 7.07017   
     axis 0 0 -20   XYZ
    dof rx ry rz
    limits (-160.0 20.0)
           (-70.0 70.0)
           (-70.0 60.0)
  end
  begin
     id 8 
     name rtibia
     direction -0.34202 -0.939693 0   
     length 8.20386   
     axis 0 0 -20   XYZ
    dof rx
    limits (-10.0 170.0)
 end
 begin
     id 9 
     name rfoot
     direction -0.0822429 -0.225961 0.970658   
     length 2.32215  
     axis -90 -7.62852e-016 -20   XYZ
    dof rx rz
    limits (-45.0 90.0)
           (-20.0 70.0)
  end
  begin
     id 10 
     name rtoes
     direction -1.53597e-011 -4.21689e-011 1   
     length 1.16333   
     axis -90 -7.62852e-016 -20   XYZ
    dof rx
    limits (-90.0 20.0)
  end
  begin
     id 11 
     name lowerback
     direction -0.0131557 0.998589 -0.0514484   
     length 2.14993   
     axis 0 0 0   XYZ
    dof rx ry rz
    limits (-20.0 45.0)
           (-30.0 30.0)
           (-30.0 30.0)
  end
  begin
     id 12 
     name upperback
     direction -0.000776481 0.999993 0.00352685   
     length 2.15301   
     axis 0 0 0   XYZ
    dof rx ry rz
    limits (-20.0 45.0)
           (-30.0 30.0)
           (-30.0 30.0)
  end
  begin
     id 13 
     name thorax
     direction 0.00438186 0.999609 0.0276143   
     length 2.15424   
     axis 0 0 0   XYZ
    dof rx ry rz
    limits (-20.0 45.0)
           (-30.0 30.0)
           (-30.0 30.0)
  end
  begin
     id 14 
     name lowerneck
     direction -0.0488006 0.998094 0.0377807   
     length 1.90481   
     axis 0 0 0   XYZ
    dof rx ry rz
    limits (-20.0 45.0)
           (-30.0 30.0)
           (-30.0 30.0)
  end
  begin
     id 15 
     name upperneck
     direction 0.0443769 0.990702 -0.12861   
     length 1.91305   
     axis 0 0 0   XYZ
    dof rx ry rz
    limits (-20.0 45.0)
           (-30.0 30.0)
           (-30.0 30.0)
  end
  begin
     id 16
     name head
     direction 0.0165599 0.998647 -0.0492982  
     length 1.92369  
     axis 0 0 0   XYZ
    dof rx ry rz
    limits (-20.0 45.0)
           (-30.0 30.0)
           (-30.0 30.0)
  end
  begin
     id 17 
     name lclavicle
     direction 0.911936 0.410197 -0.0105506  
     length 3.52622  
     axis 0 0 0   XYZ
    dof ry rz
    limits (-20.0 10.0)
           (0.0 20.0)
  end
  begin
     id 18 
     name lhumerus
     direction 1 -4.48974e-011 -2.48591e-028   
     length 5.47651   
     axis 180 -30 -90   XYZ
    dof rx ry rz
    limits (-60.0 90.0)
           (-90.0 90.0)
           (-90.0 90.0)
  end
  begin
     id 19
     name lradius
     direction 1 -4.48938e-011 -4.40099e-027   
     length 3.09058   
     axis 180 -30 -90   XYZ
    dof rx
    limits (-10.0 170.0)
  end
  begin
     id 20
     name lwrist
     direction 1 -4.49042e-011 -2.99852e-027   
     length 1.54529   
     axis 1.95339e-015 90 90   XYZ
    dof ry
    limits (-180.0 0.0)
 end
  begin
     id 21 
     name lhand
     direction 1 -4.48815e-011 -5.98193e-027   
     length 0.771611   
     axis 3.82337e-015 90 90   XYZ
    dof rx rz
    limits (-90.0 90.0)
           (-45.0 45.0)
  end
  begin
     id 22 
     name lfingers
     direction 1 -4.49034e-011 -1.1993e-026   
     length 0.622093   
     axis 7.64668e-015 90 90   XYZ
    dof rx
    limits (0.0 90.0)
  end
  begin
     id 23
     name lthumb
     direction 0.707107 -6.34867e-011 0.707107   
     length 0.893204   
     axis -90 45 -1.62303e-014   XYZ
    dof rx rz
    limits (-45.0 45.0)
           (-45.0 45.0)
  end
  begin
     id 24 
     name rclavicle
     direction -0.93442 0.355634 -0.0195692   
     length 3.62463  
     axis 0 0 0   XYZ 
    dof ry rz
    limits (-10.0 20.0)
           (-20.0 0.0)
  end
  begin
     id 25 
     name rhumerus
     direction -1 -4.48957e-011 -1.19147e-027  
     length 5.14182   
     axis 180 30 90   XYZ
    dof rx ry rz
    limits (-90.0 60.0)
           (-90.0 90.0)
           (-90.0 90.0)
  end
  begin
     id 26 
     name rradius
     direction -1 -4.48952e-011 -3.81062e-027   
     length 3.35565   
     axis 180 30 90   XYZ
    dof rx
    limits (-10.0 170.0)
  end
  begin
     id 27 
     name rwrist
     direction -1 -4.48973e-011 -2.99621e-027   
     length 1.67782   
     axis 1.95339e-015 -90 -90   XYZ
    dof ry
    limits (-180.0 0.0)
  end
  begin
     id 28
     name rhand
     direction -1 -4.48895e-011 -5.98727e-027   
     length 0.801042   
     axis 3.82337e-015 -90 -90   XYZ
    dof rx rz
    limits (-90.0 90.0)
           (-45.0 45.0)
  end
  begin
     id 29
     name rfingers
     direction -1 -4.49065e-011 -1.19972e-026   
     length 0.645821   
     axis 7.64668e-015 -90 -90   XYZ
    dof rx
    limits (0.0 90.0)
  end
  begin
     id 30
     name rthumb
     direction -0.707107 -6.34957e-011 0.707107   
     length 0.927273   
     axis -90 -45 1.62303e-014   XYZ
    dof rx rz
    limits (-45.0 45.0)
           (-45.0 45.0)
  end
:hierarchy
  begin
    root lhipjoint rhipjoint lowerback
    lhipjoint lfemur
    lfemur ltibia
    ltibia lfoot
    lfoot ltoes
    rhipjoint rfemur
    rfemur rtibia
    rtibia rfoot
    rfoot rtoes
    lowerback upperback
    upperback thorax
    thorax lowerneck lclavicle rclavicle
    lowerneck upperneck
    upperneck head
    lclavicle lhumerus
    lhumerus lradius
    lradius lwrist
    lwrist lhand lthumb
    lhand lfingers
    rclavicle rhumerus
    rhumerus rradius
    rradius rwrist
    rwrist rhand rthumb
    rhand rfingers
  end

#!OML:ASF E:\Style4\Style4.ASF
:FULLY-SPECIFIED
:DEGREES
1
root -1.57051 18.057 -0.78611 11.6088 11.1815 -1.86804
lowerback 12.3413 1.42537 -4.65427
upperback 6.56784 1.4133 -0.60635
thorax -0.120669 0.617423 1.81407
lowerneck -5.00412 -4.7099 -6.97202
upperneck 4.23641 -6.06099 4.99053
head 2.66636 -2.99575 2.61779
rclavicle 3.49861e-014 9.93923e-015
rhumerus -45.8585 14.899 -52.8533
rradius 127.838
rwrist -58.5131
rhand 11.6234 5.58888
rfingers 7.12502
rthumb 36.6645 -20.5616
lclavicle 3.49861e-014 9.93923e-015
lhumerus -67.8044 -31.9827 104.976
lradius 84.5401
lwrist 54.7015
lhand -21.5095 41.7338
lfingers 7.12502
lthumb 4.88238 71.6576
rfemur -20.952 -6.41775 28.7428
rtibia 22.9884
rfoot -15.6951 -22.9327
rtoes -0.763188
lfemur -25.2975 -11.4612 -7.63511
ltibia 23.7857
lfoot -11.5394 7.18715
ltoes -23.3664
2
root -1.6173 18.0413 -0.797721 11.5808 11.7424 -1.96601
lowerback 12.3704 1.42729 -4.63879
upperback 6.55586 1.4166 -0.639896
thorax -0.148044 0.621416 1.76938
lowerneck -4.93909 -4.60453 -7.03886
upperneck 4.36006 -5.93852 5.26055
head 2.70313 -2.92998 2.72953
rclavicle -6.75868e-014 2.8625e-014
rhumerus -43.8128 13.2431 -48.8925
rradius 129.417
rwrist -59.8148
rhand 13.5003 5.93572
rfingers 7.12502
rthumb 38.4382 -19.7429
lclavicle -6.75868e-014 2.8625e-014
lhumerus -67.8954 -31.8421 104.894
lradius 84.3721
lwrist 54.0305
lhand -21.3226 41.5799
lfingers 7.12502
lthumb 5.06284 71.4994
rfemur -21.1491 -6.58086 29.0418
rtibia 23.2564
rfoot -16.2834 -23.0018
rtoes 0.624994
lfemur -25.7383 -11.5238 -7.31224
ltibia 24.1399
lfoot -11.485 6.81652
ltoes -23.684
3
root -1.66352 18.0249 -0.811074 11.5979 12.3043 -2.02671
lowerback 12.3863 1.44294 -4.55413
upperback 6.50363 1.44348 -0.737234
thorax -0.209596 0.640963 1.61636
lowerneck -4.87765 -4.53314 -7.05758
upperneck 4.53029 -5.86799 5.55366
head 2.75864 -2.88856 2.83816
rclavicle 8.74653e-015 -2.14687e-014
rhumerus -41.8189 11.1325 -44.9814
rradius 130.876
rwrist -61.3705
rhand 14.858 6.05332
rfingers 7.12502
rthumb 39.718 -19.2572
lclavicle 8.74653e-015 -2.14687e-014
lhumerus -68.1284 -31.9277 104.838
lradius 84.2873
lwrist 53.4436
lhand -21.0279 41.3212
lfingers 7.12502
lthumb 5.34736 71.2337
rfemur -21.4407 -6.64295 29.3005
rtibia 23.5978
rfoot -16.7476 -23.2058
rtoes 1.37222
lfemur -26.1721 -11.6605 -7.01126
ltibia 24.388
lfoot -11.4208 6.58559
ltoes -24.2202
4
root -1.70549 18.0114 -0.820649 11.5252 12.7982 -2.05491
lowerback 12.4327 1.47884 -4.49033
upperback 6.46204 1.49312 -0.844693
thorax -0.277476 0.671341 1.46111
lowerneck -4.75436 -4.45857 -6.94166
upperneck 4.69387 -5.79856 5.71066
head 2.78814 -2.84951 2.87604
rclavicle -8.74653e-015 -7.95139e-015
rhumerus -39.8902 8.79317 -41.0907
rradius 132.203
rwrist -63.0178
rhand 15.643 6.23168
rfingers 7.12502
rthumb 40.4566 -18.855
lclavicle -8.74653e-015 -7.95139e-015
lhumerus -68.2997 -32.0058 104.742
lradius 84.12
lwrist 52.9684
lhand -20.8114 40.8777
lfingers 7.12502
lthumb 5.55646 70.7848
rfemur -21.6277 -6.95554 29.5305
rtibia 23.9365
rfoot -16.9909 -23.2539
rtoes 1.58819
lfemur -26.4491 -11.8418 -6.78513
ltibia 24.6297
lfoot -11.4712 6.42292
ltoes -24.7447
5
root -1.74629 17.9999 -0.824901 11.3267 13.2177 -2.07366
lowerback 12.5048 1.52992 -4.46583
upperback 6.47012 1.55902 -0.943475
thorax -0.308369 0.707429 1.33478
lowerneck -4.56638 -4.33104 -6.77624
upperneck 4.73807 -5.65837 5.81359
head 2.7553 -2.77644 2.89031
rclavicle 1.43125e-014 2.62396e-014
rhumerus -37.8563 6.15569 -37.1664
rradius 133.244
rwrist -64.7001
rhand 16.1007 6.69944
rfingers 7.12502
rthumb 40.8867 -18.2529
lclavicle 1.43125e-014 2.62396e-014
lhumerus -68.3756 -32.0441 104.582
lradius 84.0002
lwrist 52.6238
lhand -20.8228 40.4882
lfingers 7.12502
lthumb 5.54543 70.3956
rfemur -21.6887 -7.3264 29.7438
rtibia 24.3086
rfoot -17.0461 -23.3565
rtoes 1.16199
lfemur -26.5171 -11.943 -6.62529
ltibia 24.8156
lfoot -11.5495 6.19046
ltoes -24.735
6
root -1.78579 17.9875 -0.828696 11.1614 13.6689 -2.10628
lowerback 12.5385 1.54046 -4.3913
upperback 6.43566 1.57789 -1.02024
thorax -0.360272 0.721659 1.20959
lowerneck -4.24638 -4.17576 -6.75371
upperneck 4.6818 -5.48112 6.01599
head 2.67147 -2.68693 2.96898
rclavicle 2.54444e-014 3.97569e-014
rhumerus -35.7809 3.31269 -33.3009
rradius 134.102
rwrist -66.4661
rhand 15.9389 6.96451
rfingers 7.12502
rthumb 40.7347 -18.0356
lclavicle 2.54444e-014 3.97569e-014
lhumerus -68.4049 -31.9227 104.352
lradius 83.8932
lwrist 52.1471
lhand -20.7599 40.0972
lfingers 7.12502
lthumb 5.6062 70.0031
rfemur -21.7713 -7.65065 29.9733
rtibia 24.6722
rfoot -17.1322 -23.5187
rtoes 0.907394
lfemur -26.6049 -12.0098 -6.4547
ltibia 24.9459
lfoot -11.5694 5.9097
ltoes -24.8283
7
root -1.82243 17.9757 -0.831846 11.0225 14.0751 -1.98549
lowerback 12.5501 1.55945 -4.49066
upperback 6.38846 1.58973 -1.10167
thorax -0.41619 0.728803 1.1782
lowerneck -4.01254 -4.0529 -6.85202
upperneck 4.72282 -5.33934 6.25283
head 2.64535 -2.61551 3.07946
rclavicle 4.77083e-014 -2.46493e-014
rhumerus -33.693 0.218521 -29.5454
rradius 134.851
rwrist -68.1091
rhand 15.4012 6.94808
rfingers 7.12502
rthumb 40.2292 -18.2084
lclavicle 4.77083e-014 -2.46493e-014
lhumerus -68.4281 -31.7361 104.125
lradius 83.7656
lwrist 51.5717
lhand -20.5438 39.655
lfingers 7.12502
lthumb 5.81484 69.5552
rfemur -21.8242 -7.93593 30.001
rtibia 25.0247
rfoot -17.4046 -23.5694
rtoes 1.46125
lfemur -26.6461 -12.1552 -6.4512
ltibia 25.048
lfoot -11.632 5.68329
ltoes -24.4535
